<svg xmlns="http://www.w3.org/2000/svg" viewBox="0 0 48 48"><rect x="4" y="9" width="32" height="30" rx="5" fill="#fff" stroke="#263342" stroke-width="2.5"/><path d="M4 14a5 5 0 0 1 5-5h22a5 5 0 0 1 5 5v4H4z" fill="#8F9BFF" stroke="#263342" stroke-width="2.5" stroke-linecap="round" stroke-linejoin="round"/><path d="M13 5v7M27 5v7" fill="none" stroke="#263342" stroke-width="3" stroke-linecap="round" stroke-linejoin="round"/><g fill="#C9D3DE"><rect x="9" y="24" width="6" height="5" rx="1.5"/><rect x="17" y="24" width="6" height="5" rx="1.5"/><rect x="9" y="31" width="6" height="5" rx="1.5"/></g><circle cx="35" cy="35" r="9" fill="#5CD6F2" stroke="#263342" stroke-width="2.5"/><path d="M31.2 37.2A4.4 4.4 0 1 1 36.5 39.1" fill="none" stroke="#263342" stroke-width="2.3" stroke-linecap="round" stroke-linejoin="round"/><path d="M34.1 40L37.9 41.2L36.2 36.7z" fill="#263342" stroke="#263342" stroke-width="1.2" stroke-linecap="round" stroke-linejoin="round"/></svg>